# xmcd CD database file
#
# Track frame offsets:
#	150
#	22563
#	59133
#	74275
#	86758
#	95691
#	102493
#	135997
#	161500
#	190124
#	213002
#	239016
#
# Disc length: 3583 seconds
#
# Revision: 1
# Processed by: cddbd v1.5.1PL0 Copyright (c) Steve Scherf et al.
# Submitted via: CDex 1.51
#
DISCID=a00dfd0c
DTITLE=Various Artist - Relaxing Moods III Disc 2
DYEAR=2005
DGENRE=New Age
TTITLE0=Spa - The Path In
TTITLE1=Spa - 1st Glimpse
TTITLE2=Spa - Stairway
TTITLE3=Spa - Stairway II
TTITLE4=Spa - Stairway III
TTITLE5=Spa - The Path Out
TTITLE6=Spa - Transparent Voices
TTITLE7=Spa - Ocean Of Time
TTITLE8=Spa - Purety
TTITLE9=Spa - Mystic Movement
TTITLE10=Spa - Horizon
TTITLE11=Spa - Anahata
EXTD=YEAR: 2005
EXTT0=
EXTT1=
EXTT2=
EXTT3=
EXTT4=
EXTT5=
EXTT6=
EXTT7=
EXTT8=
EXTT9=
EXTT10=
EXTT11=
PLAYORDER=
